<?xml version="1.0" encoding="iso-8859-1"?>
<!-- Generator: Adobe Illustrator 19.0.0, SVG Export Plug-In . SVG Version: 6.00 Build 0)  -->
<svg version="1.1" id="Capa_1" xmlns="http://www.w3.org/2000/svg" xmlns:xlink="http://www.w3.org/1999/xlink" x="0px" y="0px"
	 viewBox="0 0 480.053 480.053" style="enable-background:new 0 0 480.053 480.053;" xml:space="preserve">
<g>
	<g>
		<path d="M384,320.026c-35.346,0-64,28.654-64,64c0,35.346,28.654,64,64,64c35.346,0,64-28.654,64-64
			C447.96,348.697,419.33,320.066,384,320.026z M384,432.026c-26.51,0-48-21.49-48-48c0-26.51,21.49-48,48-48
			c26.51,0,48,21.49,48,48C431.974,410.525,410.499,432,384,432.026z"/>
	</g>
</g>
<g>
	<g>
		<path d="M384,352.026c-17.673,0-32,14.327-32,32h16c0-8.837,7.163-16,16-16s16,7.163,16,16h16
			C416,366.353,401.673,352.026,384,352.026z"/>
	</g>
</g>
<g>
	<g>
		<rect x="376" y="392.026" width="16" height="24"/>
	</g>
</g>
<g>
	<g>
		<path d="M329.261,17.247C300.876,5.873,270.579,0.028,240,0.026C107.514,0.176,0.15,107.54,0,240.026c0,136.8,103.2,240,240,240
			h144c52.957,0.061,95.937-42.82,95.998-95.778c0.023-19.649-5.992-38.831-17.23-54.95
			C512.072,206.261,452.298,66.551,329.261,17.247z M239.088,432.114c-4.025,0.462-7.07,3.86-7.088,7.912v23.808
			c-34-0.874-67.383-9.278-97.744-24.608l16.672-28.88l-13.856-8l-16.8,29.088c-29.287-17.797-53.859-42.383-71.64-71.68
			l29.088-16.8l-8-13.856L40.84,345.77c-15.344-30.358-23.762-63.741-24.648-97.744H48v-16H16.2
			c1.164-33.881,10.055-67.047,25.992-96.968l27.528,15.896l8-13.856l-27.488-15.872C68.259,92.542,92.515,68.285,121.2,50.258
			l15.872,27.488l13.856-8l-15.896-27.528C164.953,26.281,198.119,17.391,232,16.226v31.8h16v-31.8
			c33.881,1.164,67.047,10.055,96.968,25.992l-15.896,27.528l13.856,8L358.8,50.258c28.685,18.027,52.941,42.283,70.968,70.968
			l-27.488,15.872l8,13.856l27.528-15.896c15.937,29.921,24.828,63.087,25.992,96.968H432v16h31.8
			c-0.754,22.978-5.072,45.699-12.8,67.352c-15.852-15.51-36.6-25.031-58.696-26.936c5.064-15.641,7.66-31.976,7.696-48.416
			c0-88.366-71.634-160-160-160s-160,71.634-160,160s71.634,160,160,160c16.458-0.045,32.809-2.655,48.464-7.736
			c0.953,11.569,4.011,22.866,9.024,33.336L239.088,432.114z M292.474,123.188c-16.504-7.393-34.39-11.197-52.474-11.162
			c-70.692-0.199-128.161,56.947-128.36,127.639c-0.199,70.692,56.947,128.161,127.639,128.36
			c18.169,0.051,36.142-3.766,52.721-11.199c-1.793,6.043-2.978,12.25-3.536,18.528c-75.202,27.202-158.217-11.711-185.419-86.913
			c-27.202-75.202,11.711-158.217,86.913-185.419c75.202-27.202,158.217,11.711,185.419,86.913
			c11.515,31.835,11.512,66.698-0.009,98.531c-6.278,0.558-12.485,1.743-18.528,3.536
			C385.683,227.612,356.865,152.031,292.474,123.188z M209.288,231.538c-1.717,5.528-1.717,11.448,0,16.976l-69.912,40.368
			c-15.168-30.805-15.168-66.907,0-97.712L209.288,231.538z M147.296,177.266c19.264-28.393,50.48-46.388,84.704-48.832v80.728
			c-5.606,1.429-10.719,4.355-14.792,8.464L147.296,177.266z M217.208,262.426c4.073,4.109,9.185,7.035,14.792,8.464v80.728
			c-34.218-2.436-65.433-20.42-84.704-48.8L217.208,262.426z M224,240.026c0-8.837,7.163-16,16-16s16,7.163,16,16s-7.163,16-16,16
			S224,248.863,224,240.026z M248,209.162v-80.728c34.218,2.436,65.433,20.42,84.704,48.8l-69.912,40.392
			C258.719,213.517,253.607,210.591,248,209.162z M248,270.922c5.61-1.438,10.723-4.375,14.792-8.496l69.832,40.312
			c-0.12,0.184-0.232,0.368-0.352,0.544c-11.637,7.485-21.531,17.379-29.016,29.016h0c-16.352,11.296-35.432,18.004-55.256,19.424
			V270.922z M270.712,248.514c1.717-5.528,1.717-11.448,0-16.976l69.912-40.368c15.146,30.819,15.17,66.913,0.064,97.752
			L270.712,248.514z M264,464.026h-16v-16.8l16-1.776V464.026z M427.838,450.976c-13.031,8.524-28.266,13.059-43.838,13.05H280
			v-20.4l31.288-3.472c4.391-0.488,7.556-4.443,7.068-8.834c-0.139-1.25-0.57-2.45-1.26-3.502
			c-24.186-36.975-13.818-86.556,23.158-110.742c36.975-24.186,86.556-13.818,110.742,23.158
			C475.181,377.21,464.813,426.79,427.838,450.976z"/>
	</g>
</g>
<g>
</g>
<g>
</g>
<g>
</g>
<g>
</g>
<g>
</g>
<g>
</g>
<g>
</g>
<g>
</g>
<g>
</g>
<g>
</g>
<g>
</g>
<g>
</g>
<g>
</g>
<g>
</g>
<g>
</g>
</svg>
