<?xml version="1.0"?>
<svg xmlns="http://www.w3.org/2000/svg" viewBox="0 0 64 64" width="512" height="512"><g id="Car_cleaning" data-name="Car cleaning"><path d="M49,15a1,1,0,0,0,0,2h2v2a1,1,0,0,0,2,0V17h2a1,1,0,0,0,0-2H53V13a1,1,0,0,0-2,0v2Z"/><path d="M21,14a1,1,0,0,0,2,0,4,4,0,0,0-4-4,1,1,0,0,0,0,2A2,2,0,0,1,21,14Z"/><path d="M43,15a7,7,0,1,0-7-7A7.008,7.008,0,0,0,43,15ZM43,3a5,5,0,1,1-5,5A5.006,5.006,0,0,1,43,3Z"/><path d="M43,6a2,2,0,0,1,2,2,1,1,0,0,0,2,0,4,4,0,0,0-4-4,1,1,0,0,0,0,2Z"/><path d="M32,18a4,4,0,1,0-4-4A4,4,0,0,0,32,18Zm0-6a2,2,0,1,1-2,2A2,2,0,0,1,32,12Z"/><path d="M41,41H23a1,1,0,0,0-1,1v6a1,1,0,0,0,1,1H41a1,1,0,0,0,1-1V42A1,1,0,0,0,41,41Zm-1,6H24V43H40Z"/><path d="M16,41a4,4,0,1,0,4,4A4,4,0,0,0,16,41Zm0,6a2,2,0,1,1,2-2A2,2,0,0,1,16,47Z"/><path d="M44,45a4,4,0,1,0,4-4A4,4,0,0,0,44,45Zm6,0a2,2,0,1,1-2-2A2,2,0,0,1,50,45Z"/><path d="M53,37h4a1,1,0,0,0,1-1V32a1,1,0,0,0-1-1H53a1,1,0,0,0-1,1v1H50.181l-1.635-9.823A4.98,4.98,0,0,0,43.61,19H43a3,3,0,0,0-6,0H23.889a7,7,0,1,0-7.168,1.612,4.964,4.964,0,0,0-1.267,2.564L13.819,33H12V32a1,1,0,0,0-1-1H7a1,1,0,0,0-1,1v4a1,1,0,0,0,1,1h4a1,1,0,0,0,1-1V35h1.486l-.342,2.053C10.538,37.309,9,38.736,9,41v9H7a1,1,0,0,0-1,1v5a1,1,0,0,0,1,1h3v3a3,3,0,0,0,3,3h2a3,3,0,0,0,3-3V57H46v3a3,3,0,0,0,3,3h2a3,3,0,0,0,3-3V57h3a1,1,0,0,0,1-1V51a1,1,0,0,0-1-1H55V41c0-2.264-1.538-3.691-4.144-3.947L50.514,35H52v1A1,1,0,0,0,53,37Zm1-4h2v2H54ZM10,35H8V33h2ZM40,18a1,1,0,1,1-1,1A1,1,0,0,1,40,18Zm-2.22,3a2.964,2.964,0,0,0,4.44,0h1.39a2.99,2.99,0,0,1,2.833,2H17.557a2.989,2.989,0,0,1,2.833-2ZM14,14a5,5,0,1,1,5,5A5.006,5.006,0,0,1,14,14Zm3.178,11H46.822l2,12H45.911A6,6,0,1,0,34.09,37H15.181ZM36.141,37a4,4,0,1,1,7.717,0ZM16,60a1,1,0,0,1-1,1H13a1,1,0,0,1-1-1V57h4ZM8,55V52H25v3Zm19,0V52H38v3Zm25,5a1,1,0,0,1-1,1H49a1,1,0,0,1-1-1V57h4Zm4-5H40V52H56ZM53,41v9H11V41c0-.495,0-2,3-2H50C53,39,53,40.505,53,41Z"/><path d="M9,7h1V8a1,1,0,0,0,2,0V7h1a1,1,0,0,0,0-2H12V4a1,1,0,0,0-2,0V5H9A1,1,0,0,0,9,7Z"/></g></svg>
